<?xml version="1.0" encoding="UTF-8" standalone="no"?>
<svg xmlns="http://www.w3.org/2000/svg" version="1.1" viewBox="0.00 0.00 690.00 690.00">
  <path fill="#000000" d="   M 345.53 2.15   Q 358.01 2.15 364.25 2.50   Q 416.06 5.37 462.19 22.37   Q 562.35 59.29 623.69 143.74   Q 681.04 222.69 688.32 322.22   Q 688.91 330.31 688.91 344.60   Q 688.91 358.89 688.31 366.98   Q 681.01 466.51 623.65 545.45   Q 562.29 629.88 462.12 666.78   Q 415.99 683.77 364.18 686.63   Q 357.94 686.98 345.47 686.98   Q 332.99 686.98 326.75 686.63   Q 274.94 683.76 228.81 666.76   Q 128.65 629.84 67.31 545.39   Q 9.96 466.44 2.68 366.91   Q 2.09 358.82 2.09 344.53   Q 2.09 330.24 2.68 322.15   Q 9.98 222.62 67.35 143.68   Q 128.71 59.24 228.87 22.34   Q 275.01 5.35 326.82 2.49   Q 333.06 2.14 345.53 2.15   Z   M 13.21 343.50   C 13.03 409.69 32.64 474.87 69.64 529.33   Q 125.68 611.82 218.14 650.95   Q 226.94 654.67 236.77 658.04   Q 289.61 676.15 345.03 676.30   Q 400.46 676.46 453.40 658.64   Q 463.24 655.33 472.07 651.65   Q 564.74 613.04 621.24 530.86   C 658.54 476.61 678.51 411.54 678.70 345.35   C 678.88 279.17 659.27 213.99 622.27 159.53   Q 566.23 77.04 473.77 37.91   Q 464.97 34.19 455.14 30.82   Q 402.30 12.71 346.88 12.55   Q 291.45 12.40 238.51 30.22   Q 228.66 33.53 219.84 37.20   Q 127.17 75.82 70.67 158.00   C 33.37 212.25 13.40 277.32 13.21 343.50   Z"></path>
  <path fill="#000000" d="   M 602.24 438.83   A 0.24 0.24 0.0 0 0 602.35 439.12   L 637.36 459.34   A 0.52 0.51 -64.3 0 1 637.58 459.98   Q 619.38 505.38 588.19 543.23   Q 587.71 543.81 587.06 543.42   L 552.51 522.55   Q 552.06 522.28 551.70 522.68   Q 537.84 538.24 522.46 551.12   Q 522.24 551.30 522.42 551.61   L 543.06 587.37   A 0.43 0.42 -34.8 0 1 542.96 587.91   Q 503.36 619.81 455.65 637.68   Q 455.28 637.82 455.08 637.47   L 434.00 600.97   A 0.61 0.61 0.0 0 0 433.28 600.70   Q 415.15 606.77 396.71 609.99   A 0.74 0.73 -5.2 0 0 396.10 610.71   L 396.10 653.03   A 0.42 0.42 0.0 0 1 395.75 653.44   Q 346.45 661.19 296.99 653.57   Q 296.12 653.44 296.12 652.56   L 296.12 610.32   Q 296.12 609.80 295.62 609.66   Q 293.60 609.08 288.37 607.94   Q 273.48 604.71 258.06 599.36   A 0.43 0.42 -64.5 0 0 257.56 599.54   L 236.06 636.78   A 0.92 0.91 -64.6 0 1 234.94 637.18   Q 187.89 619.35 148.87 587.85   A 0.61 0.61 0.0 0 1 148.72 587.08   L 170.40 549.53   A 0.53 0.52 36.1 0 0 170.29 548.87   Q 155.09 535.89 142.03 520.79   A 0.76 0.75 -36.2 0 0 141.06 520.64   L 104.66 543.50   A 0.68 0.68 0.0 0 1 103.77 543.35   Q 72.14 504.99 53.91 459.01   Q 53.77 458.66 54.10 458.47   L 91.85 436.67   A 0.52 0.51 65.9 0 0 92.08 436.05   Q 85.48 417.98 81.58 399.05   Q 81.48 398.57 80.99 398.57   L 37.27 398.57   A 0.49 0.49 0.0 0 1 36.79 398.16   Q 27.74 345.05 36.64 291.65   Q 36.78 290.82 37.62 290.78   L 81.33 288.73   Q 81.94 288.70 82.06 288.11   Q 86.02 269.26 92.84 251.12   A 0.48 0.47 -65.0 0 0 92.63 250.53   L 54.88 228.73   Q 54.47 228.49 54.65 228.04   Q 73.28 181.88 105.23 143.81   A 0.40 0.39 36.0 0 1 105.74 143.73   L 142.68 167.31   A 0.25 0.25 0.0 0 0 143.00 167.26   Q 156.37 152.08 171.72 139.09   A 0.58 0.57 -35.1 0 0 171.85 138.37   L 150.84 100.15   Q 150.57 99.65 151.02 99.29   Q 190.89 67.75 238.66 50.32   A 0.43 0.42 -23.4 0 1 239.18 50.52   L 259.22 88.91   A 0.58 0.58 0.0 0 0 259.92 89.19   Q 278.28 82.98 297.94 79.30   Q 298.43 79.21 298.39 78.72   L 295.11 36.34   Q 295.07 35.79 295.60 35.64   Q 296.93 35.29 298.76 35.02   Q 348.06 27.79 396.84 35.62   A 0.34 0.34 0.0 0 1 397.12 35.98   L 393.06 77.79   Q 392.99 78.58 393.77 78.71   Q 413.49 81.98 432.24 88.16   A 0.43 0.43 0.0 0 0 432.75 87.96   L 453.00 50.67   Q 453.20 50.30 453.60 50.45   Q 501.36 67.94 541.10 99.48   A 0.19 0.18 -58.5 0 1 541.15 99.71   L 521.09 136.65   Q 520.95 136.91 521.18 137.10   Q 537.15 150.15 550.58 165.30   Q 550.92 165.69 551.36 165.41   L 586.11 143.60   A 0.35 0.35 0.0 0 1 586.57 143.67   Q 618.66 182.00 637.31 228.23   A 0.62 0.62 0.0 0 1 637.04 229.01   L 602.45 248.98   A 0.81 0.80 -25.8 0 0 602.10 249.97   Q 609.29 269.02 613.43 288.60   Q 613.60 289.39 614.40 289.42   L 654.61 290.90   Q 655.13 290.92 655.22 291.43   Q 664.17 344.65 655.15 397.72   Q 655.09 398.08 654.72 398.08   L 614.13 398.08   A 0.25 0.24 -84.2 0 0 613.89 398.28   Q 609.73 419.07 602.24 438.83   Z   M 246.48 120.52   L 226.05 85.13   A 0.59 0.59 0.0 0 0 225.29 84.89   Q 206.33 93.68 188.76 105.13   A 0.40 0.36 59.6 0 0 188.66 105.64   L 209.09 142.80   Q 209.17 142.94 209.04 143.03   Q 173.66 168.01 149.21 203.47   A 0.56 0.56 0.0 0 1 148.43 203.61   L 112.66 178.87   A 0.54 0.54 0.0 0 0 111.91 179.00   Q 100.36 195.28 91.14 212.97   A 0.68 0.68 0.0 0 0 91.39 213.86   L 129.47 236.86   Q 129.77 237.04 129.62 237.36   Q 111.03 276.66 107.17 319.96   A 0.47 0.47 0.0 0 1 106.72 320.40   L 60.25 322.58   A 0.40 0.39 -89.2 0 0 59.88 322.94   Q 58.46 343.75 59.80 364.74   Q 59.84 365.22 60.32 365.22   L 106.77 365.22   A 0.57 0.56 87.2 0 1 107.33 365.73   C 110.33 393.95 117.53 420.88 129.62 446.27   Q 129.88 446.80 129.38 447.11   L 89.57 472.10   A 0.37 0.37 0.0 0 0 89.44 472.58   Q 98.67 490.82 110.17 507.38   A 0.64 0.64 0.0 0 0 111.03 507.57   L 150.97 483.47   A 0.51 0.50 56.6 0 1 151.63 483.61   Q 175.25 516.58 208.35 540.17   A 0.65 0.64 30.8 0 1 208.56 540.98   L 187.70 582.63   A 0.37 0.37 0.0 0 0 187.83 583.10   Q 202.22 592.66 218.50 600.76   A 0.78 0.78 0.0 0 0 219.51 600.48   L 244.08 562.00   Q 244.48 561.38 245.14 561.69   Q 282.61 579.35 324.10 583.43   Q 324.47 583.46 324.47 583.83   L 324.47 629.16   A 0.56 0.56 0.0 0 0 324.99 629.72   Q 345.60 631.22 365.71 629.79   Q 366.50 629.74 366.49 628.95   L 365.76 584.47   A 0.56 0.55 -4.0 0 1 366.25 583.91   Q 376.71 582.80 379.70 582.40   Q 409.49 578.36 436.13 567.56   Q 442.24 565.08 447.49 562.99   Q 447.86 562.84 448.07 563.18   L 471.85 601.06   Q 472.07 601.41 472.44 601.23   Q 488.62 593.31 504.26 582.99   A 0.57 0.57 0.0 0 0 504.45 582.26   L 483.80 542.70   Q 483.55 542.23 484.00 541.92   Q 517.96 518.34 542.44 484.76   Q 542.59 484.55 542.81 484.69   L 580.93 507.71   A 0.48 0.48 0.0 0 0 581.58 507.57   Q 593.29 490.76 602.46 472.54   A 0.74 0.55 -62.1 0 0 602.33 471.67   L 564.73 448.96   Q 564.11 448.59 564.43 447.94   Q 583.00 409.47 587.39 366.97   A 0.86 0.86 0.0 0 1 588.28 366.20   L 631.32 367.79   Q 631.85 367.81 631.89 367.28   Q 633.62 344.23 631.84 321.24   A 0.64 0.64 0.0 0 0 631.20 320.64   L 588.29 320.64   A 0.58 0.57 87.2 0 1 587.72 320.12   Q 583.66 275.28 563.92 234.61   Q 563.64 234.04 564.20 233.73   L 600.40 213.83   Q 601.02 213.48 600.69 212.86   Q 591.41 195.18 580.05 179.10   A 0.60 0.60 0.0 0 0 579.22 178.95   L 545.18 202.39   A 0.24 0.23 -34.0 0 1 544.85 202.33   Q 519.96 166.82 484.55 142.10   A 0.57 0.56 30.5 0 1 484.36 141.38   L 502.49 105.16   Q 502.67 104.81 502.34 104.59   Q 485.17 93.50 466.01 84.55   A 0.42 0.41 25.9 0 0 465.47 84.73   L 446.32 119.99   A 0.39 0.39 0.0 0 1 445.82 120.16   Q 407.70 103.06 365.72 99.79   Q 365.13 99.74 365.12 99.16   L 364.47 59.56   A 0.65 0.65 0.0 0 0 363.86 58.92   Q 346.58 57.98 329.47 58.84   Q 328.70 58.87 328.66 59.65   L 326.63 99.49   Q 326.61 100.04 326.06 100.08   Q 290.58 103.22 259.18 115.99   Q 250.22 119.63 247.26 120.79   Q 246.76 120.99 246.48 120.52   Z"></path>
  <rect fill="#000000" x="-2.28" y="-3.46" transform="translate(323.73,127.78) rotate(-7.3)" width="4.56" height="6.92" rx="0.35"></rect>
  <rect fill="#000000" x="-2.56" y="-3.85" transform="translate(354.59,128.08) rotate(1.6)" width="5.12" height="7.70" rx="0.67"></rect>
  <rect fill="#000000" x="-2.28" y="-3.49" transform="translate(317.78,128.48) rotate(-7.5)" width="4.56" height="6.98" rx="0.66"></rect>
  <path fill="#000000" d="   M 356.14 153.54   Q 355.67 152.38 355.12 153.51   Q 354.38 155.03 353.26 156.08   Q 352.24 157.02 350.37 157.02   Q 346.34 157.02 343.22 155.12   C 342.38 154.61 341.42 153.36 340.62 152.59   Q 340.21 152.18 339.90 152.67   C 337.60 156.36 334.35 157.24 330.37 157.37   Q 327.15 157.48 325.50 154.34   Q 324.84 153.09 324.48 154.46   C 323.62 157.70 320.75 158.18 317.58 158.81   A 0.54 0.53 -12.8 0 0 317.16 159.46   C 318.90 166.70 315.59 173.45 309.45 177.35   C 302.92 181.50 296.17 180.50 292.38 173.09   Q 287.92 164.38 288.39 154.71   Q 288.41 154.38 288.74 154.46   L 292.93 155.47   Q 293.15 155.52 293.17 155.74   Q 293.98 167.09 297.89 170.08   C 300.25 171.88 302.31 171.48 305.16 170.64   Q 310.28 169.14 312.44 164.12   A 1.70 1.69 -75.6 0 0 311.05 161.76   L 302.94 160.97   Q 302.31 160.91 302.26 160.28   L 301.78 154.10   A 0.57 0.57 0.0 0 1 302.23 153.51   L 317.73 150.28   A 2.58 2.58 0.0 0 0 319.78 147.71   Q 319.67 142.32 318.72 137.64   Q 318.52 136.66 319.52 136.58   L 323.22 136.30   Q 324.12 136.23 324.11 137.13   C 324.08 140.77 324.74 146.90 328.01 148.68   Q 328.67 149.03 330.11 148.83   Q 333.77 148.31 335.70 147.63   A 0.43 0.43 0.0 0 0 335.86 146.91   C 333.54 144.69 329.30 139.02 332.55 135.90   C 337.24 131.41 345.75 131.04 345.83 139.63   Q 345.86 142.29 343.81 145.75   Q 342.83 147.42 344.77 147.77   L 348.19 148.38   Q 350.26 148.75 351.06 146.96   Q 351.77 145.35 351.78 143.25   Q 351.79 138.27 351.77 135.89   Q 351.77 135.17 352.48 135.17   L 356.24 135.17   Q 357.19 135.17 357.11 136.12   Q 356.90 138.93 357.09 142.96   C 357.23 145.71 358.22 148.68 361.45 148.69   Q 363.40 148.70 364.97 148.31   A 1.68 1.59 -74.8 0 0 365.79 147.81   Q 366.46 147.06 367.02 144.01   Q 367.69 140.35 368.13 137.45   Q 368.21 136.92 368.75 136.97   L 372.66 137.35   Q 373.62 137.44 373.40 138.37   C 372.49 142.29 371.71 145.14 372.81 148.26   A 0.60 0.60 0.0 0 0 373.88 148.38   Q 378.19 141.45 383.66 137.16   C 386.49 134.94 390.55 133.82 392.95 137.28   C 396.67 142.63 395.36 150.49 392.27 155.97   Q 390.06 159.89 386.45 160.79   Q 384.94 161.17 380.88 160.42   C 376.81 159.66 370.77 159.49 369.82 155.09   Q 369.33 152.84 368.37 154.81   C 367.06 157.50 364.45 157.08 361.22 157.15   Q 359.24 157.19 358.38 156.44   Q 356.75 155.02 356.14 153.54   Z   M 382.53 152.05   Q 384.31 152.50 385.75 152.46   Q 387.58 152.41 388.53 151.27   C 390.19 149.29 391.20 143.85 387.69 142.95   Q 386.20 142.58 384.56 143.89   Q 381.33 146.46 378.28 150.67   Q 377.95 151.12 378.50 151.23   Q 382.00 151.92 382.53 152.05   Z"></path>
  <rect fill="#000000" x="-2.55" y="-19.53" transform="translate(268.44,152.10) rotate(-21.1)" width="5.10" height="39.06" rx="0.38"></rect>
  <path fill="#000000" d="   M 444.71 179.54   C 442.05 181.34 440.07 181.93 436.96 180.35   Q 429.79 176.69 428.75 175.81   C 425.70 173.23 427.22 166.84 428.64 163.39   Q 429.63 160.99 439.72 138.48   A 0.46 0.46 0.0 0 1 440.34 138.25   L 444.14 140.16   A 0.41 0.40 -64.8 0 1 444.32 140.69   Q 436.00 159.11 434.54 162.77   C 433.75 164.76 432.56 167.20 434.32 168.74   Q 436.81 170.90 441.41 173.00   A 1.73 1.73 0.0 0 0 443.45 172.53   Q 444.48 171.30 444.78 169.50   Q 446.56 159.08 447.50 155.54   Q 448.14 153.16 450.22 151.56   Q 451.74 150.40 454.47 150.83   Q 454.94 150.91 466.66 152.08   A 0.42 0.42 0.0 0 1 467.04 152.54   L 466.56 157.49   Q 466.50 158.05 465.94 157.99   L 453.94 156.83   A 1.55 1.54 -81.9 0 0 452.27 158.09   Q 451.09 164.44 450.13 170.82   C 449.32 176.22 451.75 179.18 456.83 182.05   Q 457.24 182.29 457.66 182.05   Q 459.63 180.90 460.74 179.25   Q 460.81 179.14 465.48 173.19   Q 465.83 172.75 466.30 173.07   L 469.54 175.31   Q 470.09 175.69 469.65 176.19   C 467.34 178.83 464.48 183.01 463.90 186.52   A 1.80 1.80 0.0 0 0 465.87 188.60   Q 467.09 188.47 468.31 187.05   Q 471.72 183.08 473.84 180.07   Q 474.33 179.37 475.04 179.86   L 478.03 181.93   Q 478.80 182.46 478.20 183.17   C 476.07 185.67 472.65 189.94 472.23 193.52   A 1.65 1.65 0.0 0 0 474.65 195.17   Q 476.14 194.38 477.31 192.80   Q 477.45 192.61 482.45 186.25   Q 482.72 185.91 483.08 186.16   L 486.49 188.52   Q 486.98 188.85 486.59 189.29   Q 484.04 192.16 481.38 196.91   Q 480.03 199.32 481.66 201.54   L 484.29 205.13   Q 486.06 207.56 487.62 204.99   Q 489.85 201.30 490.82 198.66   A 1.29 1.29 0.0 0 1 492.03 197.81   L 496.94 197.81   Q 497.89 197.81 497.49 198.67   C 494.87 204.18 492.64 208.57 488.18 211.71   C 485.81 213.38 483.09 215.02 480.75 213.54   Q 479.75 212.91 478.30 211.02   C 476.18 208.27 473.96 206.48 474.89 202.47   Q 475.13 201.45 474.22 201.97   Q 470.40 204.15 468.00 201.93   Q 465.66 199.78 466.26 196.05   Q 466.37 195.36 465.72 195.62   Q 462.69 196.82 461.32 196.25   Q 456.36 194.20 457.76 189.50   Q 458.25 187.86 456.81 188.77   C 452.87 191.28 449.63 187.81 446.82 185.01   Q 445.38 183.59 445.25 179.81   Q 445.23 179.19 444.71 179.54   Z"></path>
  <path fill="#000000" d="   M 418.60 144.59   Q 420.78 144.91 422.21 147.08   Q 426.04 152.90 425.35 159.98   C 424.79 165.79 421.19 170.69 414.91 169.77   C 408.62 168.85 406.58 163.12 407.71 157.40   Q 409.08 150.42 414.42 145.94   Q 416.41 144.27 418.60 144.59   Z   M 419.99 158.52   A 2.37 2.37 0.0 0 0 419.88 157.10   L 418.67 154.11   A 2.37 2.37 0.0 0 0 414.21 154.29   L 413.15 157.65   A 2.37 2.37 0.0 0 0 413.97 160.25   L 415.84 161.67   A 2.37 2.37 0.0 0 0 419.59 160.31   L 419.99 158.52   Z"></path>
  <path fill="#000000" d="   M 454.02 144.81   L 467.92 146.20   A 0.72 0.72 0.0 0 1 468.55 147.06   L 467.98 149.83   A 0.72 0.72 0.0 0 1 467.20 150.41   L 453.34 149.02   A 0.72 0.72 0.0 0 1 452.70 148.16   L 453.24 145.38   A 0.72 0.72 0.0 0 1 454.02 144.81   Z"></path>
  <path fill="#000000" d="   M 226.22 188.50   Q 220.04 185.33 218.35 179.24   C 217.68 176.83 218.15 174.30 220.10 172.66   Q 224.97 168.57 229.94 173.80   Q 233.68 177.73 234.19 182.75   Q 234.24 183.33 234.74 183.02   Q 237.03 181.60 238.63 179.93   Q 240.60 177.87 239.51 175.69   Q 237.75 172.20 235.32 168.19   A 0.82 0.82 0.0 0 1 235.63 167.05   L 238.85 165.28   Q 239.64 164.84 240.03 165.66   C 241.57 168.92 242.98 171.92 245.76 173.56   A 0.58 0.58 0.0 0 0 246.63 173.00   C 246.05 167.35 245.63 158.38 248.99 154.15   C 251.91 150.50 256.29 152.44 259.23 155.12   Q 264.26 159.72 265.71 167.09   C 266.69 172.03 265.03 175.21 260.50 177.47   Q 260.38 177.53 254.59 180.91   Q 250.69 183.18 247.31 180.39   Q 246.12 179.42 246.42 180.93   C 247.19 184.84 244.81 185.75 242.41 187.82   C 240.91 189.11 239.81 190.19 237.92 190.34   Q 235.78 190.52 233.79 190.20   Q 233.39 190.14 233.27 190.52   C 232.26 193.80 231.88 195.20 229.52 197.17   Q 228.18 198.30 226.80 199.79   C 225.25 201.48 224.40 204.52 226.84 205.76   C 228.64 206.66 230.34 206.25 232.13 205.80   Q 232.98 205.58 233.38 206.36   L 236.31 211.96   Q 236.70 212.72 235.87 212.91   C 229.07 214.50 222.22 211.57 217.16 207.16   Q 216.74 206.79 216.50 207.31   Q 215.54 209.43 211.86 212.68   Q 209.46 214.79 206.19 213.44   Q 202.58 211.95 199.85 209.55   Q 198.01 207.94 179.75 190.28   A 0.40 0.39 44.5 0 1 179.74 189.72   L 182.75 186.72   Q 183.05 186.41 183.36 186.71   Q 196.75 199.63 200.47 203.27   Q 202.27 205.03 204.49 205.85   C 206.70 206.68 209.11 203.44 210.08 201.78   Q 210.32 201.37 210.22 200.90   Q 209.91 199.48 208.69 198.02   Q 204.79 193.37 202.72 191.06   Q 202.28 190.57 202.81 190.18   L 206.13 187.74   Q 206.50 187.48 206.78 187.83   Q 212.99 195.39 217.87 200.94   Q 218.69 201.87 219.68 202.33   Q 220.16 202.55 219.96 202.07   Q 217.64 196.45 221.67 192.68   Q 222.49 191.92 226.27 189.16   Q 226.78 188.79 226.22 188.50   Z   M 252.22 172.25   Q 256.14 170.14 257.94 168.98   C 261.66 166.59 259.24 161.54 256.41 160.05   A 2.66 2.65 -59.2 0 0 252.98 160.92   Q 252.09 162.25 251.86 164.08   Q 251.37 168.04 251.45 171.80   Q 251.46 172.66 252.22 172.25   Z   M 225.82 177.27   L 223.63 178.92   A 0.83 0.83 0.0 0 0 223.47 180.08   L 224.23 181.09   A 4.66 2.13 53.0 0 0 228.74 183.53   L 228.85 183.45   A 4.66 2.13 53.0 0 0 227.75 178.44   L 226.98 177.43   A 0.83 0.83 0.0 0 0 225.82 177.27   Z"></path>
  <rect fill="#000000" x="-2.56" y="-3.83" transform="translate(216.59,166.46) rotate(-35.4)" width="5.12" height="7.66" rx="0.48"></rect>
  <rect fill="#000000" x="-2.34" y="-3.43" transform="translate(486.08,169.09) rotate(38.3)" width="4.68" height="6.86" rx="0.49"></rect>
  <rect fill="#000000" x="-2.26" y="-3.46" transform="translate(479.06,173.77) rotate(38.0)" width="4.52" height="6.92" rx="0.61"></rect>
  <rect fill="#000000" x="-2.30" y="-3.47" transform="translate(483.42,177.15) rotate(38.5)" width="4.60" height="6.94" rx="0.63"></rect>
  <rect fill="#000000" x="-3.82" y="-2.54" transform="translate(500.49,192.47) rotate(-43.4)" width="7.64" height="5.08" rx="0.61"></rect>
  <path fill="#000000" d="   M 347.03 189.88   Q 396.89 189.88 404.62 189.94   A 1.10 1.10 0.0 0 1 405.62 191.45   Q 402.88 198.18 399.24 204.50   C 392.49 216.23 387.57 223.97 383.96 234.98   Q 381.89 241.28 379.45 254.47   Q 374.94 278.92 374.77 307.60   Q 374.24 400.40 374.55 442.50   Q 374.63 452.92 374.62 453.51   Q 374.55 458.51 369.81 458.73   Q 365.60 458.93 358.27 458.61   A 2.63 2.63 0.0 0 1 355.75 455.98   Q 355.75 413.83 355.74 304.25   Q 355.74 300.34 356.16 289.75   Q 356.66 276.99 355.93 265.04   Q 355.62 260.13 354.34 255.93   A 2.33 2.32 -7.8 0 0 352.17 254.29   Q 351.44 254.27 347.04 254.27   Q 342.63 254.27 341.90 254.29   A 2.33 2.32 7.8 0 0 339.73 255.93   Q 338.45 260.13 338.14 265.04   Q 337.41 276.99 337.92 289.75   Q 338.34 300.34 338.34 304.25   Q 338.34 413.83 338.35 455.98   A 2.63 2.63 0.0 0 1 335.83 458.61   Q 328.50 458.93 324.29 458.73   Q 319.55 458.51 319.48 453.51   Q 319.47 452.92 319.54 442.50   Q 319.85 400.40 319.31 307.60   Q 319.13 278.92 314.62 254.47   Q 312.18 241.28 310.11 234.98   C 306.50 223.98 301.58 216.24 294.82 204.51   Q 291.18 198.19 288.44 191.46   A 1.10 1.10 0.0 0 1 289.44 189.95   Q 297.17 189.89 347.03 189.88   Z"></path>
  <rect fill="#000000" x="-19.56" y="-2.53" transform="translate(501.82,208.05) rotate(-40.9)" width="39.12" height="5.06" rx="0.30"></rect>
  <path fill="#000000" d="   M 186.53 207.25   Q 196.71 210.78 203.68 218.92   C 206.93 222.72 209.93 228.72 208.52 233.70   C 206.71 240.10 200.96 242.48 194.67 240.86   C 188.53 239.28 183.48 235.22 179.45 230.22   Q 179.27 230.00 179.51 229.85   L 183.02 227.74   A 0.41 0.40 -37.3 0 1 183.52 227.80   C 187.62 231.96 192.20 235.52 196.86 234.17   C 201.12 232.93 202.47 228.19 200.72 224.39   C 198.23 219.00 192.90 215.64 187.23 213.71   A 1.31 1.30 7.5 0 1 186.35 212.57   L 185.97 207.68   Q 185.92 207.04 186.53 207.25   Z"></path>
  <rect fill="#000000" x="-3.82" y="-2.54" transform="translate(180.64,217.76) rotate(38.4)" width="7.64" height="5.08" rx="0.53"></rect>
  <path fill="#000000" d="   M 502.59 226.30   Q 504.44 228.89 506.64 231.81   A 1.95 1.95 0.0 0 0 508.66 232.54   Q 509.95 232.23 510.76 230.78   Q 511.17 230.04 517.94 215.62   A 0.47 0.46 11.2 0 1 518.35 215.35   Q 524.28 215.25 524.66 215.24   A 0.15 0.15 0.0 0 1 524.79 215.45   Q 517.89 230.02 517.48 230.80   Q 514.48 236.50 508.61 238.78   C 504.33 240.45 501.82 239.46 498.93 235.81   C 497.87 234.46 495.05 231.27 494.99 228.82   Q 494.90 225.33 496.89 221.77   Q 497.03 221.53 497.31 221.50   Q 500.40 221.12 503.17 221.06   A 0.16 0.16 0.0 0 1 503.32 221.28   Q 501.76 225.13 502.59 226.30   Z"></path>
  <path fill="#000000" d="   M 237.29 246.92   Q 234.42 246.62 233.04 244.96   C 230.88 242.34 231.71 238.57 234.66 236.91   Q 237.24 235.47 239.96 234.76   Q 242.11 234.21 245.63 234.23   Q 253.51 234.29 256.78 234.37   Q 260.81 234.47 267.27 237.61   Q 280.01 243.79 288.58 252.03   Q 295.74 258.90 300.08 270.22   Q 303.82 279.98 303.88 292.32   Q 303.97 312.01 303.93 403.70   Q 303.93 405.68 302.59 404.22   Q 293.78 394.54 287.61 386.96   Q 284.63 383.29 284.46 376.43   C 284.23 367.40 284.95 359.02 284.92 349.94   Q 284.89 337.85 285.00 309.75   Q 285.01 306.51 284.10 302.41   Q 282.31 294.35 274.06 295.73   Q 272.41 296.01 270.81 298.32   Q 269.24 300.58 269.01 304.77   C 268.66 310.90 269.23 318.70 269.21 324.08   Q 269.11 355.18 269.47 364.25   Q 269.57 366.80 268.90 368.45   A 1.72 1.72 0.0 0 1 266.13 369.05   Q 260.48 363.73 255.64 361.37   Q 246.08 356.72 241.44 354.32   A 1.50 1.50 0.0 0 1 240.63 352.99   Q 240.63 285.20 240.62 262.58   C 240.62 256.83 239.98 252.47 238.06 247.52   A 0.95 0.92 82.0 0 0 237.29 246.92   Z"></path>
  <path fill="#000000" d="   M 456.73 247.58   Q 454.16 254.25 454.16 261.51   Q 454.19 299.31 454.16 353.04   Q 454.16 353.54 453.76 353.83   Q 450.96 355.82 449.30 356.57   Q 436.70 362.28 434.71 363.93   Q 431.88 366.25 429.07 368.55   Q 428.22 369.24 427.60 369.41   A 1.45 1.45 0.0 0 1 425.76 368.16   Q 425.53 365.74 425.54 364.03   Q 425.57 331.67 425.85 304.75   Q 425.86 304.31 425.17 301.07   C 424.15 296.19 419.70 294.29 415.35 296.08   Q 412.14 297.39 411.03 301.30   Q 409.78 305.70 409.80 310.00   C 409.91 328.50 409.57 348.37 410.41 368.01   Q 410.68 374.46 410.05 379.53   C 409.64 382.75 408.91 384.87 406.71 387.55   Q 400.20 395.46 392.47 403.95   Q 390.90 405.67 390.90 403.34   Q 390.83 326.29 390.92 291.54   Q 390.96 274.42 399.52 260.42   Q 404.26 252.66 412.86 246.44   Q 422.35 239.57 431.75 235.76   Q 434.69 234.57 438.25 234.28   Q 440.86 234.08 450.88 234.33   C 454.48 234.42 457.33 235.24 460.12 236.90   C 464.97 239.77 463.26 246.60 457.71 246.88   A 1.10 1.10 0.0 0 0 456.73 247.58   Z"></path>
  <path fill="#000000" d="   M 224.02 351.24   Q 215.51 351.31 207.49 349.59   A 2.14 2.13 6.0 0 1 205.79 347.50   L 205.79 272.25   A 2.75 2.75 0.0 0 1 208.23 269.52   C 214.25 268.82 218.86 274.75 221.84 279.51   Q 224.11 283.14 224.54 286.84   Q 225.74 297.28 225.39 309.93   Q 224.64 336.33 224.59 350.67   Q 224.58 351.24 224.02 351.24   Z"></path>
  <path fill="#000000" d="   M 468.98 289.24   Q 469.32 284.29 471.25 280.77   Q 473.53 276.61 476.98 273.06   Q 480.47 269.45 484.93 269.38   C 486.84 269.34 487.98 270.90 487.98 272.75   Q 487.98 332.70 488.00 348.00   A 1.19 1.19 0.0 0 1 487.39 349.04   Q 486.02 349.78 484.37 350.07   Q 478.13 351.17 469.83 351.24   Q 469.40 351.24 469.39 350.81   Q 468.38 311.51 468.38 311.50   Q 468.16 301.35 468.98 289.24   Z"></path>
  <path fill="#000000" d="   M 221.60 397.13   Q 221.79 398.10 223.99 399.76   Q 227.75 402.61 231.83 405.07   Q 237.48 408.49 239.82 410.42   Q 251.07 419.67 257.04 426.79   Q 266.39 437.96 272.69 452.34   Q 273.07 453.20 273.32 454.43   Q 273.51 455.36 273.59 456.61   A 1.49 1.49 0.0 0 1 272.10 458.19   Q 260.74 458.20 255.30 458.19   Q 253.36 458.19 252.33 457.41   Q 250.82 456.29 250.09 454.85   Q 239.30 433.54 221.02 420.30   Q 214.01 415.22 204.47 409.86   C 193.31 403.59 181.23 399.18 168.46 399.07   C 163.39 399.03 158.76 400.15 153.79 400.86   A 2.54 2.11 -23.5 0 1 151.77 400.27   Q 151.31 399.81 152.00 398.76   Q 154.59 394.82 160.00 389.00   Q 175.35 372.49 197.00 366.79   C 204.84 364.73 213.41 364.66 221.50 365.19   C 235.34 366.09 248.78 372.57 260.01 380.83   Q 270.31 388.41 277.57 397.26   Q 282.44 403.18 289.05 413.13   Q 297.63 426.02 305.07 442.71   Q 308.23 449.81 309.22 455.86   A 2.01 2.01 0.0 0 1 307.23 458.19   L 292.98 458.19   A 2.26 2.25 -15.8 0 1 291.06 457.12   C 286.12 449.18 283.58 439.59 279.16 432.00   Q 267.33 411.67 248.04 398.18   C 241.87 393.86 231.61 386.80 224.28 390.50   Q 220.66 392.33 221.60 397.13   Z"></path>
  <path fill="#000000" d="   M 472.46 395.28   C 472.01 388.48 464.16 388.78 459.29 390.58   C 451.01 393.65 443.18 399.67 436.41 405.54   Q 423.40 416.81 414.58 432.13   Q 412.26 436.16 409.15 443.89   Q 406.65 450.11 403.68 455.66   Q 403.06 456.82 402.06 457.90   A 1.34 0.81 12.9 0 1 401.15 458.20   Q 400.87 458.19 386.74 458.20   Q 384.11 458.20 384.71 455.01   Q 385.63 450.09 387.46 445.73   Q 397.23 422.39 412.51 402.04   C 423.51 387.39 437.85 375.93 454.56 369.28   Q 466.35 364.58 481.27 364.89   Q 495.48 365.18 506.33 369.92   Q 520.62 376.15 528.88 384.01   Q 532.51 387.46 540.00 396.04   Q 541.31 397.54 542.08 399.23   A 1.26 1.26 0.0 0 1 540.73 400.99   C 532.37 399.63 528.70 398.72 521.92 399.17   C 511.45 399.86 501.09 403.53 491.61 408.61   Q 481.47 414.05 473.09 420.09   Q 454.61 433.39 444.12 454.15   Q 443.12 456.12 441.76 457.20   Q 440.51 458.19 438.26 458.20   Q 430.66 458.24 421.52 458.17   A 1.23 1.22 0.2 0 1 420.30 456.95   Q 420.30 454.59 421.34 452.08   Q 426.67 439.24 435.55 428.29   Q 439.35 423.59 445.31 418.03   Q 453.80 410.10 456.02 408.75   Q 464.33 403.70 468.58 400.83   C 470.45 399.57 472.62 397.87 472.46 395.28   Z"></path>
  <path fill="#000000" d="   M 538.34 431.24   Q 523.20 431.86 508.28 439.79   Q 493.59 447.61 482.69 458.08   Q 479.59 461.06 476.02 465.61   C 471.79 471.01 470.03 473.54 467.19 476.19   A 0.73 0.73 0.0 0 1 466.28 476.26   L 452.08 466.44   Q 450.98 465.68 451.42 464.41   Q 452.85 460.24 455.26 457.03   C 466.62 441.91 481.83 427.81 498.26 419.68   Q 507.95 414.89 523.82 412.11   Q 528.15 411.35 532.83 411.36   C 541.25 411.37 547.41 410.30 552.57 416.43   Q 557.92 422.78 560.41 431.05   A 1.41 1.40 84.8 0 1 558.91 432.86   Q 556.56 432.60 548.64 431.70   Q 542.99 431.05 538.34 431.24   Z"></path>
  <path fill="#000000" d="   M 198.48 449.02   Q 186.87 440.63 174.37 435.90   Q 162.63 431.46 150.01 431.98   Q 144.47 432.20 133.88 433.58   A 1.07 1.07 0.0 0 1 132.67 432.61   Q 132.57 431.40 133.02 430.01   C 134.76 424.69 138.94 416.97 144.18 413.82   Q 146.56 412.40 151.51 412.04   Q 162.48 411.23 174.24 413.70   Q 189.22 416.83 200.97 423.76   Q 214.79 431.91 228.65 446.99   C 234.62 453.47 238.64 458.02 241.41 464.71   Q 241.95 466.00 240.82 466.83   L 226.94 476.99   A 0.96 0.95 -41.2 0 1 225.71 476.91   Q 222.52 473.81 220.93 471.51   Q 212.38 459.07 198.48 449.02   Z"></path>
  <ellipse fill="#000000" cx="0.00" cy="0.00" transform="translate(346.98,488.32) rotate(-1.8)" rx="18.31" ry="17.02"></ellipse>
  <path fill="#000000" d="   M 252.33 507.21   A 0.95 0.93 76.7 0 0 253.17 507.74   Q 279.79 508.03 305.52 506.83   Q 308.25 506.70 313.13 507.20   Q 316.94 507.58 319.30 508.63   A 2.07 2.06 -78.2 0 1 320.53 510.52   L 320.53 542.14   A 1.81 1.81 0.0 0 1 318.72 543.95   L 223.05 543.95   A 1.81 1.81 0.0 0 1 221.24 542.22   C 220.80 532.96 220.90 522.54 223.43 513.74   Q 230.05 490.75 252.14 480.87   Q 265.90 474.72 281.80 474.10   Q 297.82 473.47 317.78 473.90   A 2.83 2.83 0.0 0 1 320.55 476.73   L 320.55 490.24   Q 320.55 492.40 318.43 492.81   Q 314.43 493.58 310.19 493.41   Q 299.62 493.00 279.03 493.10   Q 267.37 493.15 257.92 499.40   C 256.14 500.58 251.22 504.88 252.33 507.21   Z"></path>
  <path fill="#000000" d="   M 441.67 506.40   C 441.02 503.07 437.21 500.06 434.36 498.38   Q 425.90 493.39 416.27 493.17   Q 403.98 492.88 380.83 493.41   Q 378.46 493.47 375.06 492.76   A 2.08 2.07 6.0 0 1 373.41 490.73   L 373.41 476.49   A 2.65 2.64 89.9 0 1 376.04 473.84   Q 394.88 473.74 403.11 473.73   Q 412.43 473.71 420.14 474.95   Q 432.04 476.87 436.77 478.47   Q 456.39 485.08 465.89 503.39   Q 470.09 511.50 471.88 521.52   C 473.01 527.87 472.73 535.86 472.61 542.62   Q 472.58 543.96 471.25 543.96   L 375.31 543.96   A 1.90 1.90 0.0 0 1 373.41 542.06   L 373.41 509.78   A 1.02 1.02 0.0 0 1 374.09 508.82   Q 376.24 508.06 378.05 507.87   Q 388.28 506.79 404.76 507.24   Q 426.29 507.83 440.53 507.80   A 1.17 1.16 84.3 0 0 441.67 506.40   Z"></path>
  <path fill="#000000" d="   M 371.62 556.41   Q 371.89 556.80 371.92 556.86   A 1.16 1.11 60.7 0 1 371.55 558.28   Q 360.60 565.70 348.94 570.42   Q 346.76 571.30 343.67 569.85   Q 335.66 566.08 322.66 559.14   Q 322.20 558.90 322.32 558.39   Q 322.66 556.86 323.77 555.02   Q 328.55 547.13 337.41 535.66   Q 342.12 529.57 345.91 525.76   A 1.19 1.18 -43.2 0 1 347.63 525.81   Q 359.17 538.58 371.62 556.41   Z"></path>
</svg>
